<?xml version="1.0" encoding="utf-8"?>
<!-- Generator: Adobe Illustrator 16.0.4, SVG Export Plug-In . SVG Version: 6.00 Build 0)  -->
<!DOCTYPE svg PUBLIC "-//W3C//DTD SVG 1.1//EN" "http://www.w3.org/Graphics/SVG/1.1/DTD/svg11.dtd">
<svg version="1.1" id="Layer_1" xmlns="http://www.w3.org/2000/svg" xmlns:xlink="http://www.w3.org/1999/xlink" x="0px" y="0px"
	 width="92.011px" height="77.417px" viewBox="0 0 92.011 77.417" enable-background="new 0 0 92.011 77.417" xml:space="preserve">
<g>
	<g>
		<path fill="#FFFFFF" d="M25.285,21.575h-3.4v-3.818c0-3.643,2.962-6.606,6.604-6.606l12.652,0.002v3.4L28.49,14.55
			c-1.768,0-3.205,1.438-3.205,3.206V21.575z"/>
		<path fill="#FFFFFF" d="M62.622,26.404c-1.717,0.015-3.882-1.147-4.83-2.58L43.794,2.618C42.849,1.183,43.476,0.015,45.195,0
			l23.315,5.031c1.995,0.275,3.679,1.335,4.827,2.576l16.123,16.07c0.951,1.429,0.325,2.607-1.394,2.613L62.622,26.404z"/>
		<path fill="#FFFFFF" d="M90.38,51.142c0-1.596-0.209-1.264-1.804-1.264l0,0c-1.598,0-1.806-0.332-1.806,1.264l-1.627,6.592
			c0,1.594,1.838,2.348,3.434,2.348l0,0c1.599,0,3.434-0.754,3.434-2.348L90.38,51.142z"/>
		<rect x="86.633" y="31.365" fill="#FFFFFF" width="3.4" height="14.234"/>
		<path fill="#FFFFFF" d="M59.904,35.591c-3.309,0.208-7.919-1.943-9.521-4.956c-0.54-1.011-1.434-4.041-1.434-4.041H6.397
			c-3.186,0-6.186,2.589-6.186,5.774L0.194,48.498h76.528l-0.075-15.574C76.647,32.921,64.245,35.318,59.904,35.591z"/>
		<path fill="#FFFFFF" d="M70.385,77.417H6.127C2.749,77.417,0,74.643,0,71.232V56.532c0-0.939,0.762-1.701,1.7-1.701
			c0.939,0,1.701,0.762,1.701,1.701v14.701c0,1.535,1.223,2.785,2.727,2.785h64.258c1.504,0,2.728-1.25,2.728-2.785V56.532
			c0-0.939,0.761-1.701,1.699-1.701s1.7,0.762,1.7,1.701v14.701C76.512,74.643,73.764,77.417,70.385,77.417z"/>
		<path fill="#FFFFFF" d="M44.128,44.924c0-3.128-2.538-5.666-5.667-5.666l0,0c-3.128,0-5.664,2.537-5.664,5.666v4
			c0,3.128,2.538,5.667,5.664,5.667l0,0c3.13,0,5.667-2.539,5.667-5.667V44.924z"/>
	</g>
	<polygon opacity="0.2" fill="#FFFFFF" points="71.76,75.731 3.635,75.731 0.115,68.974 0.115,42.922 76.687,42.922 76.687,68.503 	
		"/>
</g>
</svg>
